<?xml version="1.0" encoding="UTF-8" standalone="no"?> <svg id="icon" xmlns="http://www.w3.org/2000/svg" viewBox="0 0 512 512"><title>house engineer</title><path d="M485.591,239.194a5.779,5.779,0,0,0,4.086-9.864l-91.452-91.452a5.778,5.778,0,0,0-8.172,0L298.6,229.33a5.778,5.778,0,0,0,8.172,8.171l87.367-87.365L481.505,237.5A5.761,5.761,0,0,0,485.591,239.194Z"/><path d="M465.937,313.431V244.664a5.778,5.778,0,0,0-1.692-4.085l-66.02-66.02a5.779,5.779,0,0,0-8.172,0l-66.021,66.02a5.778,5.778,0,0,0-1.692,4.085v68.767a23.819,23.819,0,0,0,23.792,23.791h23.785a5.778,5.778,0,0,0,5.778-5.778V290.737a18.444,18.444,0,0,1,36.888,0v40.707a5.778,5.778,0,0,0,5.778,5.778h23.784A23.819,23.819,0,0,0,465.937,313.431Zm-71.8-52.693a30.034,30.034,0,0,0-30,30v34.929H346.132A12.25,12.25,0,0,1,333.9,313.431V247.058l60.243-60.242,60.242,60.242v66.373a12.25,12.25,0,0,1-12.236,12.235H424.139V290.737A30.034,30.034,0,0,0,394.139,260.738Z"/><path d="M142.814,206.738a4.96,4.96,0,0,0,1.127-.116,5.728,5.728,0,0,0,1.083-.332,5.47,5.47,0,0,0,1-.52,7.158,7.158,0,0,0,.881-.722,5.854,5.854,0,0,0,.707-.882,5.814,5.814,0,0,0,.867-2.08,5.528,5.528,0,0,0,0-2.253,5.808,5.808,0,0,0-.867-2.081,5.789,5.789,0,0,0-.707-.88,5.853,5.853,0,0,0-.881-.708,5.483,5.483,0,0,0-1-.535,5.877,5.877,0,0,0-1.083-.332,5.385,5.385,0,0,0-2.254,0,5.524,5.524,0,0,0-1.083.332,5.057,5.057,0,0,0-1,.535,5.188,5.188,0,0,0-.881.708,5.957,5.957,0,0,0-.723.88,6.73,6.73,0,0,0-.534,1,5.541,5.541,0,0,0-.318,1.084,5.016,5.016,0,0,0-.115,1.127,5.807,5.807,0,0,0,1.69,4.088,6.189,6.189,0,0,0,.881.722,5.05,5.05,0,0,0,1,.52,5.392,5.392,0,0,0,1.083.332A4.885,4.885,0,0,0,142.814,206.738Z"/><path d="M184.576,203.169a6.38,6.38,0,0,0,.52,1,7.078,7.078,0,0,0,.722.882,6.189,6.189,0,0,0,.881.722,6.144,6.144,0,0,0,2.08.852,5.528,5.528,0,0,0,2.253,0,5.4,5.4,0,0,0,1.084-.332,5.47,5.47,0,0,0,1-.52,7.084,7.084,0,0,0,.881-.722,5.872,5.872,0,0,0,1.69-4.088,6.07,6.07,0,0,0-.115-1.127,5.51,5.51,0,0,0-.333-1.084,6.559,6.559,0,0,0-.52-1,6.986,6.986,0,0,0-.722-.88,5.8,5.8,0,0,0-.881-.708,5.808,5.808,0,0,0-2.081-.867,5.38,5.38,0,0,0-2.253,0,5.6,5.6,0,0,0-1.084.332,5.508,5.508,0,0,0-1,.535,5.8,5.8,0,0,0-.881.708,6.986,6.986,0,0,0-.722.88,6.47,6.47,0,0,0-.52,1,5.441,5.441,0,0,0-.332,1.084,5.528,5.528,0,0,0,0,2.253A5.392,5.392,0,0,0,184.576,203.169Z"/><path d="M191.358,242.279a5.778,5.778,0,1,0-7.109-9.11,28.612,28.612,0,0,1-33.837.965,5.778,5.778,0,1,0-6.58,9.5,40.165,40.165,0,0,0,47.526-1.354Z"/><path d="M230.121,411.769a5.778,5.778,0,0,0-5.778,5.778v6.684h-4.906a5.778,5.778,0,1,0,0,11.556h42.116a5.778,5.778,0,1,0,0-11.556H256.71V403.639a5.778,5.778,0,0,0-11.556,0v20.592H235.9v-6.684A5.778,5.778,0,0,0,230.121,411.769Z"/><path d="M306.305,492.528a5.779,5.779,0,0,0,5.778-5.726c.01-1.108.168-27.531-6.279-63.543A153.956,153.956,0,0,0,252.1,331.8a5.778,5.778,0,0,0-7.353,8.916A142.387,142.387,0,0,1,294.429,425.3a395.2,395.2,0,0,1,6,55.675H32.287a394.674,394.674,0,0,1,6-55.675,142.108,142.108,0,0,1,52.765-87.058q5.746-4.479,11.137-8.43c9.261,73.1,59,103.636,61.208,104.953a5.5,5.5,0,0,0,.568.288c.045.021.088.049.134.068.094.04.191.065.286.1a5.581,5.581,0,0,0,3.944,0c.1-.035.193-.06.287-.1.046-.019.089-.047.134-.068a5.5,5.5,0,0,0,.568-.288c2.306-1.376,56.545-34.616,62.234-115.031,0-.071,0-.141,0-.211,0-.087,0-.173,0-.259a5.63,5.63,0,0,0-.073-.873c-.006-.039-.007-.078-.014-.117a5.754,5.754,0,0,0-.262-.932c-.03-.082-.064-.161-.1-.242a5.856,5.856,0,0,0-.377-.751c-.029-.047-.051-.1-.081-.143a5.74,5.74,0,0,0-.595-.762c-.062-.068-.125-.133-.191-.2a5.724,5.724,0,0,0-.765-.654l-.014-.013q-6.738-4.678-12.912-8.5c-.235-.146-.478-.305-.712-.449-.2-.125-.4-.237-.6-.361a178.2,178.2,0,0,0-15.717-8.656V280.646a63.867,63.867,0,0,0,45.589-55.386h6.209a24.134,24.134,0,0,0,23.713-28.814,28.21,28.21,0,0,0,4.83-30.075,48.931,48.931,0,0,0-11.809-16.844V120.509a5.779,5.779,0,0,0-5.778-5.779h-4.577c-3.545-48.9-29.435-67.945-52.142-75.157v-.32A19.8,19.8,0,0,0,185.4,19.472H147.32a19.8,19.8,0,0,0-19.782,19.781v.317C104.58,46.85,78.922,66,75.4,114.73H70.819a5.779,5.779,0,0,0-5.778,5.779v29.019a48.929,48.929,0,0,0-11.809,16.843,28.483,28.483,0,0,0,4.191,29.36,5.734,5.734,0,0,0,.653.625,24.152,24.152,0,0,0,23.7,28.9h6.209a63.865,63.865,0,0,0,45.588,55.386V296.61c-.255.123-.518.255-.776.381q-1.335.651-2.709,1.356c-.269.139-.535.274-.806.415q-3.648,1.9-7.558,4.187l-.537.316q-1.819,1.068-3.692,2.218l-.371.227q-4.158,2.562-8.582,5.521l-.563.379q-2.022,1.357-4.1,2.795l-.252.172-.018.014q-9.31,6.468-19.665,14.531a153.652,153.652,0,0,0-57.037,94.137c-6.447,36.012-6.289,62.435-6.279,63.543a5.779,5.779,0,0,0,5.778,5.726ZM195.142,307.509c.948.465,1.917.958,2.9,1.47.341.178.693.371,1.038.554.65.345,1.3.691,1.964,1.056.421.231.853.477,1.28.716.607.341,1.214.681,1.832,1.037.46.266.929.542,1.395.816.6.354,1.206.71,1.818,1.078.488.293.982.6,1.477.9q.912.558,1.838,1.136.765.477,1.538.968.93.591,1.876,1.2c.529.342,1.058.685,1.593,1.036.636.418,1.279.846,1.924,1.277.543.362,1.084.723,1.633,1.094.168.114.341.235.511.35-2.634,29.165-12.345,51.51-22.982,67.8-3.509-18.205-8.8-43.1-15.111-64.792ZM187.4,402.693a120.528,120.528,0,0,1-21.046,20.116,120.568,120.568,0,0,1-21.045-20.116c3.2-17.525,9.1-47.362,16.434-72.885h9.223C178.3,355.331,184.207,385.168,187.4,402.693Zm-49.829-95.184L151.048,325.2c-6.315,21.693-11.6,46.588-15.11,64.792-10.639-16.288-20.35-38.635-22.983-67.8A207.444,207.444,0,0,1,137.574,307.509ZM250.94,213.7h-5.935v-25.23h5.935a12.615,12.615,0,1,1,0,25.23Zm17.753-28.962a24.086,24.086,0,0,0-17.753-7.824h-5.935V155.86H257.27c.056.045.1.1.155.141a36.3,36.3,0,0,1,11.461,14.98A16.693,16.693,0,0,1,268.693,184.742ZM147.32,31.029H185.4a8.234,8.234,0,0,1,8.225,8.224V114.73H139.1V39.253A8.233,8.233,0,0,1,147.32,31.029ZM127.538,51.8v68.713a5.778,5.778,0,0,0,5.778,5.778H199.4a5.778,5.778,0,0,0,5.778-5.778V51.8c24.38,9.161,38,30.287,40.551,62.931H225.4a5.779,5.779,0,0,0,0,11.557h30.717V144.3H76.6V126.287h30.717a5.779,5.779,0,0,0,0-11.557H86.988C89.544,82.061,103.158,60.94,127.538,51.8ZM63.83,170.981A36.285,36.285,0,0,1,75.291,156c.057-.042.1-.1.154-.141H87.711v21.058H81.776a24.082,24.082,0,0,0-17.733,7.8A16.834,16.834,0,0,1,63.83,170.981Zm5.331,30.109a12.629,12.629,0,0,1,12.615-12.616h5.935V213.7H81.776A12.628,12.628,0,0,1,69.161,201.09Zm30.106,18.392V155.86h19.107c3.258,9.429,12.193,26.2,35.4,32.132a16.081,16.081,0,0,0,3.984.5A16.344,16.344,0,0,0,173.084,177.8c4.565,1.639,11.239,2.715,20.744,1.661a22.666,22.666,0,0,0,13.882-6.849,5.777,5.777,0,1,0-8.35-7.987,11.1,11.1,0,0,1-6.8,3.351c-13.319,1.462-18.193-2.252-18.936-2.907a5.382,5.382,0,0,0-5.753-2.312,5.884,5.884,0,0,0-4.463,4.919l-.936,5.281a4.811,4.811,0,0,1-2.152,3.232,4.622,4.622,0,0,1-3.681.61c-15.145-3.873-22.408-13.635-25.814-20.936H233.448v63.622a52.234,52.234,0,0,1-52.175,52.176H151.442A52.235,52.235,0,0,1,99.267,219.482Zm52.175,63.732h29.831c2.131,0,4.236-.109,6.313-.315v15.457l-15.152,19.895H160.281l-15.152-19.895V282.9C147.207,283.105,149.312,283.214,151.442,283.214Z"/></svg>